PathFileType	4	(X/Y/Z)	G:\Shared drives\HPL_Drive\Nord Sprinting Study\Kristen_Nord_test\Trimmed_Nord000004.trc
DataRate	CameraRate	NumFrames	NumMarkers	Units	OrigDataRate	OrigDataStartFrame	OrigNumFrames
200.00	200.00	      7	52	mm	200.00	752	      1002
Frame#	Time	C7			R_Shoulder			L_Shoulder			Sternum			R_humerus			R_elbow_med			R_elbow_lat			R_forearm			R_wrist_radius			R_wrist_ulna			L_humerus			L_elbow_med			L_elbow_lat			L_forearm			L_wrist_radius			L_wrist_ulna			r.ASIS			r.PSIS			r_IC			L.ASIS			L.PSIS			l_IC			r_thigh1			r_thigh2			r_thigh3			r_thigh4			r_thigh5			r_knee			r_mknee			r_shank_antsup			r_sh2			r_sh3			r_sh4			r_ankle			r_mankle			r_calc			r_5meta			r_toe			L_thigh1			L_thigh2			L_thigh3			L_thigh4			L_knee			L_mknee			L_shank_antsup			L_sh2			L_sh3			L_ankle			L_mankle			L_calc			L_5meta			L_toe			
		X1	Y1	Z1	X2	Y2	Z2	X3	Y3	Z3	X4	Y4	Z4	X5	Y5	Z5	X6	Y6	Z6	X7	Y7	Z7	X8	Y8	Z8	X9	Y9	Z9	X10	Y10	Z10	X11	Y11	Z11	X12	Y12	Z12	X13	Y13	Z13	X14	Y14	Z14	X15	Y15	Z15	X16	Y16	Z16	X17	Y17	Z17	X18	Y18	Z18	X19	Y19	Z19	X20	Y20	Z20	X21	Y21	Z21	X22	Y22	Z22	X23	Y23	Z23	X24	Y24	Z24	X25	Y25	Z25	X26	Y26	Z26	X27	Y27	Z27	X28	Y28	Z28	X29	Y29	Z29	X30	Y30	Z30	X31	Y31	Z31	X32	Y32	Z32	X33	Y33	Z33	X34	Y34	Z34	X35	Y35	Z35	X36	Y36	Z36	X37	Y37	Z37	X38	Y38	Z38	X39	Y39	Z39	X40	Y40	Z40	X41	Y41	Z41	X42	Y42	Z42	X43	Y43	Z43	X44	Y44	Z44	X45	Y45	Z45	X46	Y46	Z46	X47	Y47	Z47	X48	Y48	Z48	X49	Y49	Z49	X50	Y50	Z50	X51	Y51	Z51	X52	Y52	Z52	

752	3.755	1204.23486	967.89142	1020.98981	1327.71326	997.65283	996.55890	1068.08972	1010.79279	989.00092	1206.42749	1034.47681	898.73260	1494.83997	925.97113	999.87793	1620.50745	862.58038	928.06146	1605.62732	842.43353	1004.82233	1592.52783	963.74115	1045.75598	1558.41016	1077.59973	1042.79175	1596.25183	1070.43005	1070.82666	878.05609	928.71246	961.47284	788.17548	883.00970	858.26959	778.51038	857.07965	932.41931	790.02728	997.85754	983.75446	825.14197	1088.55176	994.83844	766.92969	1089.07007	996.25342	1328.14697	665.87805	615.05743	1272.09851	618.74707	798.21362	1357.25439	700.69104	717.84845	1098.35120	666.05396	606.98322	1156.39075	618.90393	790.15430	1068.46704	702.34998	695.87262	1381.85364	504.53207	460.39212	1375.31116	437.83475	366.79095	1386.26819	383.78561	370.55167	1391.90588	419.65982	524.60718	1373.42419	352.88098	428.49411	1371.74927	346.57275	303.44141	1249.82520	338.04782	320.29431	1392.03784	216.17516	316.71616	1372.67432	97.43716	330.19791	1391.29883	223.11639	393.19403	1373.82593	109.63734	412.19601	1354.70105	-67.45354	386.34479	1276.80713	-54.36297	356.03781	1295.34363	-87.19678	445.76740	1363.75171	-151.42688	295.42923	1332.92236	-126.75822	240.14865	1039.80786	515.82635	447.62213	1046.52124	432.98120	333.18301	1025.23828	421.94055	519.84192	1039.80957	342.46320	409.62146	1033.78357	333.50787	324.08926	1159.10791	326.07224	300.59964	1013.47516	222.90558	319.69293	1024.39880	236.61624	408.93085	1034.84668	114.79797	415.56192	1038.20300	-62.30170	396.62216	1105.12500	-50.34550	336.06995	1091.19067	-55.82352	437.74030	1029.16272	-178.68549	313.16837	1066.37024	-171.14273	252.62561	
753	3.760	1204.29932	968.52759	1020.26855	1327.80933	998.43597	995.59296	1068.20776	1011.79572	988.01331	1206.44629	1035.14148	897.68274	1494.92712	926.57263	998.92035	1620.42029	862.82184	927.07697	1605.61780	842.86121	1003.86566	1592.45959	964.28015	1044.59534	1558.36926	1078.12866	1041.35388	1596.31714	1071.05566	1069.46704	878.19153	929.66229	960.58551	788.30682	883.57440	857.53271	778.53217	857.87085	931.83447	790.18469	998.78235	982.75671	825.30011	1089.48828	993.52069	767.08929	1090.01270	995.07751	1328.05554	666.06622	614.67645	1272.83838	618.94537	798.39160	1357.20923	701.00928	717.47479	1097.95850	666.10840	606.87140	1156.35889	619.29865	789.98334	1069.42126	702.64410	694.89404	1381.54297	504.76599	460.22607	1375.09949	437.90616	366.66827	1386.20935	383.90439	370.50638	1391.46362	419.79138	524.39984	1373.42468	352.98901	428.48267	1371.68604	346.54068	303.48019	1249.80139	337.98407	320.29053	1392.06445	216.20807	316.78275	1372.67139	97.40495	330.18884	1391.25183	223.04385	393.20795	1373.85461	109.61447	412.18900	1354.71973	-67.46488	386.36121	1276.86340	-54.43139	356.03021	1295.36133	-87.22901	445.77679	1363.89783	-151.47276	295.41928	1332.99487	-126.84311	240.17033	1039.72217	515.86548	447.52310	1046.46838	432.91251	333.24524	1025.20154	421.97675	519.80682	1039.82080	342.48590	409.61249	1033.84570	333.49954	324.05200	1159.10303	326.05444	300.61490	1013.52002	222.85674	319.63522	1024.42236	236.62077	408.95676	1034.92883	114.79042	415.53491	1038.33350	-62.32542	396.61160	1105.25500	-50.31415	336.07248	1091.21716	-55.71055	437.75781	1029.51733	-178.85062	313.27548	1066.71057	-171.27931	252.70451	
754	3.765	1204.28113	969.39844	1019.48157	1327.78198	999.32300	994.49384	1068.31848	1012.61566	987.13782	1206.53491	1035.81384	896.73438	1494.97046	927.18811	997.92853	1620.37256	863.06708	926.22467	1605.60266	843.31226	1002.99713	1592.38977	964.84540	1043.41809	1558.19153	1078.64551	1039.98669	1596.16321	1071.58264	1068.11169	878.30347	930.55396	959.69659	788.38824	884.20142	856.80066	778.56183	858.71124	931.18408	790.31110	999.71570	981.75653	825.39880	1090.45996	992.30688	767.31140	1091.03516	993.70697	1327.62219	666.05463	614.29492	1272.89673	619.39178	798.08337	1357.20264	701.32019	717.03253	1097.76233	666.24481	606.59912	1156.29517	619.67517	789.76129	1068.33411	702.84387	695.26349	1381.24646	504.97498	460.08740	1374.91895	438.08478	366.56604	1386.12683	384.07556	370.43924	1391.60132	420.04642	524.41779	1373.43835	353.09036	428.44833	1371.62097	346.54117	303.52316	1249.76355	337.90222	320.27841	1391.96155	216.13411	316.77313	1372.70703	97.40201	330.19321	1391.23145	223.05289	393.25522	1373.81531	109.58839	412.18619	1354.75635	-67.50073	386.41245	1276.90271	-54.45520	355.96744	1295.34192	-87.25162	445.76462	1363.97583	-151.55319	295.51941	1333.11865	-126.86569	240.29704	1039.69507	515.98853	447.39679	1046.38696	432.88461	333.04556	1025.19763	422.07092	519.75665	1039.82947	342.50967	409.62930	1033.86487	333.52243	324.06580	1159.15454	326.10501	300.57217	1013.58423	223.00107	319.55051	1024.48230	236.60591	408.92944	1034.93799	114.81009	415.50977	1038.36316	-62.10999	396.67145	1105.37244	-50.30131	336.07053	1091.33948	-55.55129	437.72717	1029.92163	-179.01369	313.32562	1068.73083	-171.88231	251.94453	
755	3.770	1204.41003	970.28107	1018.60382	1328.10754	1000.02911	993.64063	1068.69092	1012.87659	985.79163	1206.60889	1036.46301	895.60925	1495.11145	927.82330	996.88464	1620.35547	863.46838	925.18420	1605.54614	843.73389	1002.12677	1592.41003	965.38196	1042.27344	1558.15222	1079.23792	1038.50024	1596.12183	1072.19507	1066.68176	878.25110	931.28400	959.13074	788.45343	884.81000	856.12756	778.65485	859.51471	930.54944	790.29779	1000.71851	980.79755	825.48737	1091.41431	991.12109	767.32001	1092.08008	992.57739	1327.80457	666.37988	613.99506	1272.88098	619.88770	797.81262	1357.08154	701.65375	716.56689	1097.70215	666.42358	606.25800	1156.24365	620.08557	789.57568	1069.18335	703.08002	694.34827	1381.01416	505.12070	459.97443	1374.70532	438.11639	366.52985	1385.99622	384.16513	370.38095	1391.30603	420.15530	524.02966	1373.42114	353.20731	428.42743	1371.57458	346.53268	303.59418	1249.75562	337.84213	320.25522	1391.97852	216.15236	316.78540	1372.67920	97.35599	330.20502	1391.18481	223.02351	393.26471	1373.72473	109.18082	412.54642	1354.79749	-67.52193	386.41653	1276.88721	-54.53324	356.04257	1295.33374	-87.28399	445.81122	1364.06421	-151.58420	295.57831	1333.21802	-126.96681	240.25441	1039.60205	515.97467	447.34091	1046.45911	432.97940	333.18600	1025.15625	422.17697	519.70557	1039.83069	342.55478	409.62115	1033.86133	333.51193	324.08298	1159.16284	326.21680	300.57040	1013.59735	222.87961	319.66174	1024.49023	236.58376	408.94067	1035.04785	114.77605	415.53076	1038.59375	-62.35824	396.55551	1105.46594	-50.27602	336.04984	1091.43518	-55.46185	437.72833	1030.34766	-179.16682	313.43253	1069.20251	-172.03413	251.97508	
756	3.775	1204.59851	971.13538	1017.70844	1328.02661	1000.88416	992.55145	1068.60413	1014.18622	985.25586	1206.67383	1037.15063	894.66675	1495.13477	928.41516	995.91107	1620.22949	863.65143	924.26874	1605.52295	844.22278	1001.18542	1592.25659	965.89362	1041.01746	1558.03992	1079.66589	1037.07471	1595.92761	1072.75037	1065.12598	878.31635	932.20111	958.39044	788.57880	885.31445	855.49048	778.71045	860.33221	929.95068	790.41650	1001.62299	979.83484	825.67255	1092.33154	989.94238	767.43103	1092.96118	991.51141	1327.72559	666.56189	613.63104	1272.86926	620.36542	797.54688	1357.15039	702.01434	716.07837	1097.47253	666.49194	606.13947	1156.25696	620.37537	789.47156	1069.10339	703.30664	694.06470	1380.70532	505.27502	459.80768	1374.50122	438.24048	366.40384	1385.88025	384.34167	370.29779	1391.23596	420.43652	523.90942	1373.41260	353.35098	428.40964	1371.55298	346.49478	303.55154	1249.70166	337.78174	320.21796	1391.97668	216.09674	316.83997	1372.63354	97.33868	330.20786	1391.10376	222.96657	393.27841	1373.71570	109.14102	412.54443	1354.74402	-67.54984	386.44324	1276.88025	-54.54869	355.97479	1295.31177	-87.31262	445.77463	1364.12793	-151.62495	295.67307	1333.29651	-127.03683	240.33018	1039.58508	516.09253	447.26843	1046.35901	432.92337	333.00281	1025.13660	422.27612	519.66553	1039.82788	342.60196	409.62585	1033.86743	333.54733	324.03885	1159.18164	326.04333	300.60657	1013.59106	222.84286	319.46381	1024.51196	236.56473	408.95056	1035.11719	114.76002	415.51541	1038.71350	-62.42151	396.58899	1105.59143	-50.26112	336.04462	1091.50037	-55.38356	437.70035	1030.16772	-179.31502	313.34692	1068.00720	-171.63022	252.97832	
757	3.780	1204.77942	972.26068	1016.66766	1328.31653	1001.56512	991.63208	1068.67908	1014.98798	984.38281	1206.77222	1037.77026	893.58765	1495.25610	929.07257	994.90271	1620.16064	863.95575	923.34088	1605.49866	844.66833	1000.27313	1592.40430	966.43787	1039.83728	1557.93384	1080.16650	1035.55078	1596.00305	1073.40564	1063.77539	878.43372	933.02356	957.59528	788.68939	886.08057	854.56146	778.74249	861.09674	929.38544	790.53784	1002.55865	978.85248	825.77649	1093.28638	988.70990	767.50287	1093.98938	990.25208	1327.58533	666.71259	613.26453	1272.92017	620.81458	797.25653	1357.10510	702.35809	715.57239	1097.56775	666.69952	605.72284	1156.20166	620.78290	789.28046	1068.94238	703.53760	693.78247	1380.38354	505.42200	459.64853	1374.30701	438.38266	366.31363	1385.77271	384.46997	370.25903	1391.20313	420.66794	524.02155	1373.47327	353.50916	428.38568	1371.50610	346.52142	303.59317	1249.68506	337.75897	320.21313	1391.91821	216.08128	316.82538	1372.59668	97.31308	330.22482	1391.06189	222.95967	393.31189	1373.66492	109.09103	412.55176	1354.71960	-67.59251	386.46774	1276.85437	-54.56554	356.05109	1295.24353	-87.35616	445.82574	1364.18237	-151.69298	295.70981	1333.37268	-127.09828	240.44524	1039.54041	516.15985	447.15375	1046.45874	433.12842	332.94418	1025.05273	422.42426	519.62018	1039.82788	342.63242	409.60162	1033.85352	333.52081	324.07852	1159.21094	326.08679	300.58368	1013.73108	222.92216	319.66562	1024.66895	236.72762	409.07999	1035.18677	114.76746	415.53186	1038.83167	-62.43060	396.55737	1105.73633	-50.24139	336.03568	1091.61487	-55.30819	437.74960	1031.12915	-179.38850	313.47525	1068.41809	-171.74480	252.98880	
758	3.785	1204.69775	972.86212	1016.04675	1328.28101	1002.40533	990.59033	1068.83057	1015.78046	983.47296	1206.81128	1038.40271	892.60608	1495.28333	929.86749	993.63812	1620.07642	864.25055	922.23615	1605.49878	845.13727	999.30695	1592.34021	966.97955	1038.65100	1557.84399	1080.63062	1034.14282	1595.90320	1073.89697	1062.15686	878.57104	933.91028	956.72595	788.67633	886.65442	854.09973	778.83551	861.90497	928.65765	790.64307	1003.47076	977.93762	825.90491	1094.20996	987.56378	767.59485	1094.92212	989.04810	1327.41211	666.88519	612.90100	1272.88037	621.28461	796.98492	1357.00391	702.70990	715.16833	1097.55078	666.87823	605.40851	1156.17261	621.11359	788.94226	1068.86523	703.79883	693.43732	1380.08838	505.56464	459.52234	1374.12451	438.41006	366.22873	1385.67859	384.59583	370.20584	1391.19409	420.94617	523.94928	1373.44666	353.63504	428.37335	1371.45264	346.48056	303.62668	1249.65747	337.69565	320.17862	1391.94446	216.26009	316.81946	1372.51807	97.26618	330.21802	1390.99182	222.97824	393.30997	1373.59485	109.08748	412.59213	1354.70129	-67.60641	386.44992	1276.81079	-54.60459	355.97766	1295.15247	-87.38972	445.80536	1364.17078	-151.71690	295.77264	1333.41589	-127.19537	240.36865	1039.45972	516.18457	447.02829	1046.39429	433.04669	332.89423	1025.04529	422.55246	519.57086	1039.82837	342.72034	409.59854	1033.07813	333.51321	324.38791	1159.23120	326.15451	300.55255	1013.73767	222.77295	319.64728	1024.53723	236.55457	408.93335	1035.21802	114.76900	415.49203	1038.96057	-62.45695	396.51901	1105.84460	-50.21494	336.01929	1091.71423	-55.21651	437.69342	1031.92798	-179.46005	313.36340	1068.79260	-171.79706	252.97624	
